<?xml version="1.0" encoding="UTF-8" standalone="no"?>
<!DOCTYPE svg PUBLIC "-//W3C//DTD SVG 1.1//EN" "http://www.w3.org/Graphics/SVG/1.1/DTD/svg11.dtd">
<svg width="100%" height="100%" viewBox="0 0 551 79" version="1.1" xmlns="http://www.w3.org/2000/svg" xmlns:xlink="http://www.w3.org/1999/xlink" xml:space="preserve" style="fill-rule:evenodd;clip-rule:evenodd;stroke-linejoin:round;stroke-miterlimit:1.41421;">
    <g transform="matrix(1,0,0,1,-250.065,-256.193)">
        <g transform="matrix(1,0,0,1,-5.25154,5.68434e-14)">
            <g>
                <g transform="matrix(3.42701,0,0,3.42701,-4797.26,-296.853)">
                    <path d="M1484.44,161.379C1478.41,161.379 1474.97,164.412 1474.97,168.545C1474.97,172.312 1477.34,174.245 1483.51,175.379C1486.77,176.012 1487.81,176.579 1487.81,177.579C1487.81,178.845 1486.61,179.612 1484.14,179.612C1481.21,179.612 1479.07,178.812 1477.31,176.279L1474.34,180.312C1476.51,182.712 1479.24,184.045 1484.44,184.045C1489.74,184.045 1493.74,181.579 1493.74,177.279C1493.74,173.412 1491.37,171.479 1485.34,170.445C1481.97,169.845 1480.94,169.179 1480.94,168.045C1480.94,166.779 1482.17,165.845 1484.54,165.845C1487.34,165.845 1489.21,166.879 1490.67,169.079L1493.91,165.345C1491.37,162.512 1488.57,161.379 1484.44,161.379Z" style="fill:white;fill-rule:nonzero;"/>
                </g>
                <g transform="matrix(3.42701,0,0,3.42701,-4797.26,-296.853)">
                    <path d="M1514.51,183.712L1521.01,183.712L1513.14,170.645L1520.61,161.712L1514.24,161.712L1506.37,171.479L1506.37,161.712L1500.64,161.712L1500.64,183.712L1506.37,183.712L1506.37,177.512L1509.04,174.279L1514.51,183.712Z" style="fill:white;fill-rule:nonzero;"/>
                </g>
                <g transform="matrix(3.42701,0,0,3.42701,-4797.26,-296.853)">
                    <rect x="1527.07" y="161.712" width="5.733" height="22" style="fill:white;fill-rule:nonzero;"/>
                </g>
                <g transform="matrix(3.42701,0,0,3.42701,-4797.26,-296.853)">
                    <path d="M1546.74,179.279L1546.74,161.712L1541.01,161.712L1541.01,183.712L1557.77,183.712L1557.77,179.279L1546.74,179.279Z" style="fill:white;fill-rule:nonzero;"/>
                </g>
                <g transform="matrix(3.42701,0,0,3.42701,-4797.26,-296.853)">
                    <path d="M1570.14,179.279L1570.14,161.712L1564.41,161.712L1564.41,183.712L1581.17,183.712L1581.17,179.279L1570.14,179.279Z" style="fill:white;fill-rule:nonzero;"/>
                </g>
                <g transform="matrix(3.42701,0,0,3.42701,-4808.68,-296.853)">
                    <path d="M1629.44,161.712L1618.51,161.712L1618.51,183.712L1625.31,183.712L1625.31,176.412L1629.44,176.412C1635.24,176.412 1638.34,173.845 1638.34,169.212C1638.34,164.279 1635.24,161.712 1629.44,161.712ZM1628.34,171.612L1625.31,171.612L1625.31,166.679L1628.34,166.679C1630.54,166.679 1631.51,167.479 1631.51,169.145C1631.51,170.812 1630.54,171.612 1628.34,171.612Z" style="fill:white;fill-rule:nonzero;"/>
                </g>
                <g id="U" transform="matrix(1.3322,0,0,1.3322,-232.953,-74.3767)">
                    <path d="M712.22,248.139L712.22,281.897C712.22,298.82 703.142,307.194 685.073,307.194C676.372,307.194 669.735,305.233 665.202,301.292L694.874,271.62L694.874,282.296L702.256,282.296L702.256,258.139L678.098,258.139L678.098,265.52L688.774,265.52L660.107,294.187C658.655,290.768 657.925,286.673 657.925,281.897L657.925,248.139L712.22,248.139Z" style="fill:white;"/>
                </g>
            </g>
        </g>
    </g>
</svg>
